<?xml version="1.0" encoding="UTF-8" standalone="no"?>
<!-- Created with Inkscape (http://www.inkscape.org/) -->

<svg
   version="1.1"
   id="svg2615"
   width="1201.3333"
   height="156"
   viewBox="0 0 1201.3333 156"
   sodipodi:docname="engineering chronicles logo copy new.svg"
   inkscape:version="1.2.2 (732a01da63, 2022-12-09)"
   xmlns:inkscape="http://www.inkscape.org/namespaces/inkscape"
   xmlns:sodipodi="http://sodipodi.sourceforge.net/DTD/sodipodi-0.dtd"
   xmlns="http://www.w3.org/2000/svg"
   xmlns:svg="http://www.w3.org/2000/svg">
  <defs
     id="defs2619" />
  <sodipodi:namedview
     id="namedview2617"
     pagecolor="#ffffff"
     bordercolor="#000000"
     borderopacity="0.25"
     inkscape:showpageshadow="2"
     inkscape:pageopacity="0.0"
     inkscape:pagecheckerboard="0"
     inkscape:deskcolor="#d1d1d1"
     showgrid="false"
     inkscape:zoom="1.1995007"
     inkscape:cx="600.6666"
     inkscape:cy="78.782781"
     inkscape:window-width="1920"
     inkscape:window-height="991"
     inkscape:window-x="-9"
     inkscape:window-y="-9"
     inkscape:window-maximized="1"
     inkscape:current-layer="g2623">
    <inkscape:page
       x="0"
       y="0"
       id="page2621"
       width="1201.3333"
       height="156" />
  </sodipodi:namedview>
  <g
     id="g2623"
     inkscape:groupmode="layer"
     inkscape:label="Page 1"
     transform="matrix(1.3333333,0,0,1.3333333,0,3.9e-6)">
    <g
       id="g2625">
      <path
         d="m 36.066,93.293 0.313,-11 h 3.066 c 3.981,0 9.114,-3.211 10.77,-6.727 0.715,-1.527 1.527,-6.039 1.801,-10.023 l 0.5,-7.25 h 10.617 l 0.308,3.75 c 0.301,3.637 0.438,3.758 4.559,4.055 2.332,0.168 5.426,0.922 6.871,1.672 3.051,1.582 5.012,1.078 6.481,-1.665 2.265,-4.234 -4.063,-8.972 -7.098,-5.312 -0.688,0.824 -2.738,1.5 -4.563,1.5 -3.113,0 -3.336,-0.234 -3.628,-3.75 l -0.309,-3.75 -13.5,-0.594 V 34.293 h 6 c 5.203,0 6,0.246 6,1.875 0,1.035 -0.676,2.437 -1.5,3.125 -3.418,2.832 -0.824,8.48 3.59,7.824 3.613,-0.535 4.652,-3.269 2.683,-7.062 -0.929,-1.793 -1.824,-4.614 -1.984,-6.262 -0.289,-3 -0.293,-3 -7.539,-3.297 l -7.25,-0.293 v -3.211 c 0,-1.769 -0.422,-4.672 -0.934,-6.457 l -0.929,-3.242 h 4.273 c 2.348,0 6.391,0.637 8.984,1.418 5.836,1.754 16.594,8.664 20.602,13.23 2.859,3.258 3.004,3.844 3.004,12.411 0,9.609 1.996,17.32 5.914,22.824 2.809,3.941 2.68,4.25 -1.664,3.91 l -3.75,-0.293 -0.301,5.184 c -0.258,4.472 -0.605,5.23 -2.5,5.5 -1.91,0.273 -2.269,1.089 -2.719,6.16 -0.621,6.984 -2.472,8.949 -7.171,7.597 -1.68,-0.48 -4.11,-1.566 -5.399,-2.41 -3.871,-2.535 -4.41,-1.926 -4.41,4.969 v 6.5 h -13 v -4.441 c 0,-2.446 0.449,-4.719 1,-5.059 1.379,-0.855 1.254,-4.848 -0.203,-6.301 -1.793,-1.793 -4.258,-1.453 -6.367,0.875 -1.797,1.985 -1.801,2.211 -0.157,5.082 0.95,1.653 1.727,4.543 1.727,6.422 v 3.422 h -6.25 l -6.25,0.004 z m 13.188,-1 c 0,-0.551 0.449,-1 1,-1 0.547,0 1,0.449 1,1 0,0.547 -0.453,1 -1,1 -0.551,0 -1,-0.453 -1,-1 z M 36.066,78.043 c -0.859,-0.688 -2.027,-2.133 -2.593,-3.207 -0.836,-1.59 -0.625,-2.156 1.125,-3.031 3.238,-1.614 2.734,-4.012 -0.844,-4.012 -2.656,0 -2.969,-0.309 -2.727,-2.676 0.325,-3.14 -1.64,-4.816 -2.933,-2.508 -0.75,1.344 -1.586,0.864 -5.121,-2.945 -2.321,-2.5 -5.235,-4.945 -6.469,-5.434 -5.125,-2.023 -0.848,-12.937 5.066,-12.937 3.809,0 7.508,3.453 6.93,6.473 -0.523,2.742 1.367,5.882 2.953,4.902 0.535,-0.332 0.75,-1.453 0.481,-2.488 -0.59,-2.258 0.988,-3.434 4.07,-3.035 1.234,0.16 2.25,-0.102 2.25,-0.582 0,-1.575 -2.359,-3.27 -4.547,-3.27 -1.18,0 -2.945,-0.887 -3.922,-1.965 -0.976,-1.078 -3.25,-2.449 -5.058,-3.043 -6.645,-2.195 -4.786,-11.625 2.824,-14.328 0.988,-0.352 2.273,-2.008 2.855,-3.684 2.145,-6.148 10.184,-7.796 14.922,-3.058 l 2.926,2.922 v 26.144 c 0,16.016 -0.402,26.887 -1.031,28.067 -1.086,2.031 -5.938,4.945 -8.231,4.945 -0.746,0 -2.062,-0.563 -2.926,-1.25 z m 5.082,-47.668 c 2.196,-1.391 0.614,-4.031 -2.003,-3.344 -1.821,0.473 -2.106,0.258 -1.559,-1.168 0.945,-2.461 -0.191,-3.937 -1.922,-2.5 -4.129,3.426 0.934,9.895 5.484,7.012 z m 35.106,33.918 c 0,-0.551 0.449,-1 1,-1 0.547,0 1,0.449 1,1 0,0.547 -0.453,1 -1,1 -0.551,0 -1,-0.453 -1,-1 z M 64.793,43.359 c -0.316,-0.511 -0.117,-1.211 0.441,-1.558 0.559,-0.344 1.02,0.074 1.02,0.929 0,1.758 -0.602,2.016 -1.461,0.629 z"
         style="fill:#ffffff;fill-opacity:1;fill-rule:nonzero;stroke:none"
         id="path2627" />
      <path
         d="m 201.773,82.379 c -0.91,-1.004 -1.656,-2.129 -1.656,-2.5 0,-0.367 3.149,-0.672 7,-0.672 h 7 v -24 h -2.5 c -2.109,0 -2.5,-0.465 -2.5,-3 0,-2.867 0.188,-3 4.305,-3 3.555,0 4.859,0.574 7.5,3.301 l 3.195,3.297 v 22.011 l -3.297,3.196 c -3.074,2.98 -3.773,3.195 -10.347,3.195 -5.555,0 -7.395,-0.387 -8.7,-1.828 z m 271.543,0.629 c -2.761,-2.762 -1.308,-3.801 5.301,-3.801 h 6.5 v -24 h -2.5 c -2.109,0 -2.5,-0.465 -2.5,-3 0,-2.879 0.176,-3 4.422,-3 3.301,0 5.207,0.66 7.5,2.59 l 3.078,2.59 v 12.222 c 0,12.09 -0.031,12.254 -2.804,14.914 -2.536,2.426 -3.528,2.684 -10.301,2.684 -4.496,0 -7.977,-0.48 -8.696,-1.199 z M 118.117,59.207 v -16 h 9.906 l 0.594,12.5 5.25,0.305 c 4.821,0.277 5.25,0.5 5.25,2.75 0,2.301 -0.332,2.445 -5.5,2.445 h -5.5 v 14 h -10 z m 13,13 c 0,-2.664 0.332,-3 3,-3 2,0 3,-0.5 3,-1.5 0,-1.133 1.223,-1.5 5,-1.5 h 5 v 9 h -16 z m 27,-10 v -13 h 10 v 26 h -10 z m 17,3 c 0,-9.332 -0.133,-10 -2,-10 -2.5,0 -2.582,-2.16 -0.172,-4.344 2.879,-2.605 6.426,-2.019 9.977,1.645 3.148,3.246 3.195,3.441 3.195,13 v 9.699 h -11 z m 24.196,6.703 c -2.93,-3.023 -3.196,-3.84 -3.196,-9.805 0,-6.046 0.235,-6.73 3.297,-9.699 1.816,-1.758 4.289,-3.199 5.5,-3.199 2.125,0 2.203,0.363 2.203,10 0,9.336 0.133,10 2,10 1.258,0 2,0.668 2,1.801 0,5.222 -7.09,5.765 -11.804,0.902 z m 35.804,-9.703 v -13 h 10 v 26 h -10 z m 21,0 v -13 h 10 v 26 h -10 z m 18,3 v -10 h -2.5 c -2.957,0 -3.265,-1.996 -0.672,-4.344 2.758,-2.496 7.141,-2.058 10.368,1.032 2.718,2.605 2.804,3.007 2.804,13 v 10.312 h -10 z m 23.086,6.109 c -2.613,-3.296 -3.086,-4.75 -3.086,-9.468 0,-4.805 0.426,-6.055 3.106,-9.106 1.929,-2.199 4.007,-3.535 5.5,-3.535 h 2.394 v 26 h -2.414 c -1.613,0 -3.441,-1.293 -5.5,-3.891 z m 9.914,0.891 v -3 h 7 c 6.074,0 7,0.238 7,1.801 0,3.082 -2.187,4.199 -8.199,4.199 -5.777,0 -5.801,-0.012 -5.801,-3 z m 28.75,-0.457 c -2.418,-2.914 -2.75,-4.156 -2.75,-10.242 0,-6.281 0.262,-7.176 2.805,-9.613 1.543,-1.477 3.793,-2.688 5,-2.688 2.148,0 2.195,0.281 2.195,13 0,12.836 -0.027,13 -2.25,12.93 -1.265,-0.039 -3.453,-1.52 -5,-3.387 z m 9.25,0.457 v -3 h 7 c 6.074,0 7,0.238 7,1.801 0,3.082 -2.187,4.199 -8.199,4.199 -5.777,0 -5.801,-0.012 -5.801,-3 z m 26,-10 v -13 h 10 v 26 h -10 z m 37,0 v -13 h 10 v 26 h -10 z m 21,0 v -13 h 10 v 26 h -10 z m 17.785,3.25 c -0.269,-9.246 -0.402,-9.766 -2.535,-10.066 -2.722,-0.387 -2.898,-2.286 -0.422,-4.528 2.758,-2.496 7.141,-2.058 10.368,1.032 2.718,2.605 2.804,3.007 2.804,13 v 10.312 h -9.926 z m 23.321,6.215 c -2.766,-3.149 -3.106,-4.215 -3.106,-9.801 0,-5.781 0.258,-6.519 3.297,-9.465 1.813,-1.758 4.289,-3.199 5.5,-3.199 2.125,0 2.203,0.363 2.203,10 v 10 h 2.5 c 2.957,0 3.266,2 0.672,4.348 -3.152,2.851 -7.574,2.101 -11.066,-1.883 z m 57.09,0.238 c -3.161,-3.262 -3.196,-3.402 -3.196,-13.312 0,-9.668 0.098,-10.11 2.805,-12.703 1.543,-1.477 3.793,-2.688 5,-2.688 2.168,0 2.195,0.195 2.195,16 0,14.754 -0.14,16 -1.804,16 -0.993,0 -3.243,-1.48 -5,-3.297 z m 9.804,0.297 c 0,-2.762 0.278,-3 3.5,-3 3.067,0 3.5,-0.309 3.5,-2.5 0,-2.332 0.332,-2.5 5,-2.5 4.555,0 5,0.207 5,2.305 0,1.293 -1.445,3.707 -3.297,5.5 -2.851,2.761 -4.004,3.195 -8.5,3.195 -5.113,0 -5.203,-0.051 -5.203,-3 z m 28,-15 v -18 h 10 v 36 h -10 z m 17.785,8.25 c -0.269,-9.246 -0.402,-9.766 -2.535,-10.066 -1.344,-0.192 -2.25,-1.02 -2.25,-2.051 0,-5.156 7.125,-5.66 11.805,-0.832 3.148,3.246 3.195,3.441 3.195,13 v 9.699 h -9.926 z m 20.278,-3.25 -0.114,-13 h 11.051 v 26 h -10.82 z m 40.133,9.703 c -2.93,-3.023 -3.196,-3.84 -3.196,-9.805 0,-6.046 0.235,-6.73 3.297,-9.699 2.316,-2.246 4.254,-3.199 6.5,-3.199 2.891,0 3.203,0.293 3.203,3 0,1.652 -0.449,3 -1,3 -0.57,0 -1,3 -1,7 0,4 0.43,7 1,7 0.551,0 1,1.352 1,3 0,2.731 -0.301,3 -3.304,3 -2.422,0 -4.153,-0.875 -6.5,-3.297 z m 12.804,0.297 c 0,-1.648 0.449,-3 1,-3 0.571,0 1,-3 1,-7 0,-4 -0.429,-7 -1,-7 -0.551,0 -1,-1.348 -1,-3 0,-2.727 0.301,-3 3.305,-3 2.422,0 4.152,0.879 6.5,3.301 2.93,3.019 3.195,3.84 3.195,9.801 0,6.046 -0.234,6.734 -3.297,9.703 -2.316,2.242 -4.254,3.195 -6.5,3.195 -2.89,0 -3.203,-0.289 -3.203,-3 z m 24,-10 v -13 h 10 v 26 h -10 z m 17,3 c 0,-9.332 -0.133,-10 -2,-10 -2.5,0 -2.582,-2.16 -0.172,-4.344 2.879,-2.605 6.426,-2.019 9.977,1.645 3.148,3.246 3.195,3.441 3.195,13 v 9.699 h -11 z m 21,-3 v -13 h 11 v 26 h -11 z m 24.106,9.465 c -2.766,-3.149 -3.106,-4.215 -3.106,-9.801 0,-5.781 0.258,-6.519 3.297,-9.465 1.813,-1.758 4.289,-3.199 5.5,-3.199 2.156,0 2.203,0.27 2.203,13 v 13 h -2.394 c -1.493,0 -3.571,-1.332 -5.5,-3.535 z m 9.894,0.535 c 0,-2.531 0.391,-3 2.5,-3 1.555,0 2.5,-0.566 2.5,-1.5 0,-1.133 1.223,-1.5 5,-1.5 6.016,0 6.387,1.266 1.703,5.805 -2.648,2.566 -4.129,3.195 -7.5,3.195 -4.004,0 -4.203,-0.141 -4.203,-3 z m 28.688,0.195 c -2.676,-2.789 -2.688,-2.871 -2.688,-18 V 39.207 h 10 v 30 h 2.5 c 2.11,0 2.5,0.469 2.5,3 0,2.918 -0.133,3 -4.812,3 -3.969,0 -5.285,-0.492 -7.5,-2.805 z m 23.508,-0.492 c -2.93,-3.023 -3.196,-3.84 -3.196,-9.805 0,-6.046 0.235,-6.73 3.297,-9.699 6.078,-5.89 6.703,-4.976 6.703,9.801 0,11.863 -0.156,13 -1.804,13 -0.993,0 -3.243,-1.48 -5,-3.297 z m 9.804,0.297 v -3 h 7 c 5.196,0 7,0.348 7,1.348 0,2.773 -3.562,4.652 -8.828,4.652 -5.078,0 -5.172,-0.051 -5.172,-3 z m 27.188,0.043 c -1.203,-1.629 -2.188,-3.203 -2.188,-3.5 0,-0.297 2.477,-0.543 5.5,-0.543 3.813,0 5.422,0.379 5.25,1.227 -0.137,0.675 0.762,1.382 2,1.57 1.438,0.219 2.25,1.039 2.25,2.273 0,1.664 -0.73,1.93 -5.312,1.93 -4.727,0 -5.551,-0.324 -7.5,-2.957 z m 15.812,-2.043 v -5 h -6.312 c -5.614,0 -6.614,-0.309 -9,-2.805 -1.477,-1.543 -2.688,-3.933 -2.688,-5.312 0,-3.07 4.766,-7.883 7.805,-7.883 1.933,0 2.195,0.535 2.195,4.5 v 4.5 h 6.196 c 5.359,0 6.574,0.363 9,2.688 3.679,3.527 3.722,7.746 0.117,11.507 -1.477,1.543 -3.727,2.805 -5,2.805 -2.11,0 -2.313,-0.441 -2.313,-5 z m -550,-8 c 0,-1.555 0.668,-2 3,-2 2.535,0 3,-0.387 3,-2.5 0,-2.109 -0.465,-2.5 -3,-2.5 -2.668,0 -3,-0.332 -3,-3 0,-2.918 0.133,-3 4.813,-3 6.668,0 10.187,3.563 10.187,10.305 v 4.695 h -7.5 c -6.832,0 -7.5,-0.176 -7.5,-2 z m 38,0 c 0,-1.555 0.668,-2 3,-2 2.535,0 3,-0.387 3,-2.5 0,-2.109 -0.465,-2.5 -3,-2.5 -2.668,0 -3,-0.332 -3,-3 0,-2.922 0.121,-3 4.895,-3 4.355,0 5.242,0.395 8,3.535 2.355,2.684 3.105,4.492 3.105,7.5 v 3.965 h -8 c -7.332,0 -8,-0.164 -8,-2 z m 469,0 c 0,-1.562 0.668,-2 3.071,-2 2.609,0 3.019,-0.336 2.75,-2.25 -0.231,-1.609 -1.102,-2.34 -3.071,-2.566 -2.304,-0.262 -2.75,-0.793 -2.75,-3.25 0,-2.789 0.211,-2.934 4.305,-2.934 3.555,0 4.859,0.574 7.5,3.301 2.562,2.644 3.195,4.125 3.195,7.5 v 4.199 h -7.5 c -6.832,0 -7.5,-0.176 -7.5,-2 z m -426,-4 c 0,-2.332 -0.445,-3 -2,-3 -2.5,0 -2.582,-2.16 -0.172,-4.344 3.16,-2.859 7.586,-2.113 10.555,1.778 1.438,1.89 2.617,4.589 2.617,6 0,2.445 -0.262,2.566 -5.5,2.566 -5.445,0 -5.5,-0.027 -5.5,-3 z m 233,0 c 0,-2.531 -0.39,-3 -2.5,-3 -2.957,0 -3.265,-1.996 -0.672,-4.344 4.77,-4.316 13.075,0.168 13.141,7.094 0.031,3.238 0.012,3.25 -4.969,3.25 -4.89,0 -5,-0.066 -5,-3 z m 136,-1 c 0,-1.465 -0.668,-2 -2.5,-2 -2.109,0 -2.5,-0.465 -2.5,-3 0,-2.84 0.215,-3 4.067,-3 5.101,0 10.933,4.066 10.933,7.621 0,2.192 -0.398,2.379 -5,2.379 -4.332,0 -5,-0.266 -5,-2 z M 543.93,51.957 c -0.274,-2.855 -0.703,-3.285 -3.563,-3.562 -2.691,-0.258 -3.25,-0.731 -3.25,-2.75 0,-2.301 0.321,-2.438 5.813,-2.438 5.062,0 6.16,0.363 8.5,2.805 1.769,1.847 2.687,3.894 2.687,6 0,3.164 -0.051,3.195 -4.937,3.195 -4.836,0 -4.942,-0.062 -5.25,-3.25 z m 313.187,2.25 c 0,-0.547 -1.351,-1 -3,-1 -2.332,0 -3,-0.441 -3,-2 0,-1.769 0.668,-2 5.844,-2 4.394,0 6.258,0.457 7.5,1.832 2.769,3.055 2.008,4.168 -2.844,4.168 -2.476,0 -4.5,-0.449 -4.5,-1 z m -720,-4.5 c 0,-1 -1,-1.5 -3,-1.5 -2.535,0 -3,-0.387 -3,-2.5 0,-2.457 0.133,-2.5 8,-2.5 h 8 v 8 h -5 c -3.777,0 -5,-0.363 -5,-1.5 z m 98,-7.5 c 0,-2.934 0.11,-3 5,-3 4.891,0 5,0.066 5,3 0,2.934 -0.109,3 -5,3 -4.89,0 -5,-0.066 -5,-3 z m 173,0 c 0,-2.934 0.11,-3 5,-3 4.891,0 5,0.066 5,3 0,2.934 -0.109,3 -5,3 -4.89,0 -5,-0.066 -5,-3 z m 310,0 c 0,-2.969 0.055,-3 5.5,-3 5.446,0 5.5,0.031 5.5,3 0,2.973 -0.054,3 -5.5,3 -5.445,0 -5.5,-0.027 -5.5,-3 z"
         style="fill:#ffffff;fill-opacity:1;fill-rule:nonzero;stroke:none"
         id="path2629" />
    </g>
  </g>
</svg>
