<?xml version="1.0" encoding="UTF-8" standalone="no"?>
<!-- Created with Inkscape (http://www.inkscape.org/) -->

<svg
   version="1.1"
   id="svg16"
   width="1201.3333"
   height="156"
   viewBox="0 0 1201.3333 156"
   sodipodi:docname="engineering chronicles logo copy.png"
   inkscape:version="1.2.2 (732a01da63, 2022-12-09)"
   xmlns:inkscape="http://www.inkscape.org/namespaces/inkscape"
   xmlns:sodipodi="http://sodipodi.sourceforge.net/DTD/sodipodi-0.dtd"
   xmlns="http://www.w3.org/2000/svg"
   xmlns:svg="http://www.w3.org/2000/svg">
  <defs
     id="defs20" />
  <sodipodi:namedview
     id="namedview18"
     pagecolor="#ffffff"
     bordercolor="#000000"
     borderopacity="0.25"
     inkscape:showpageshadow="2"
     inkscape:pageopacity="0.0"
     inkscape:pagecheckerboard="0"
     inkscape:deskcolor="#d1d1d1"
     showgrid="false"
     inkscape:zoom="1.0412364"
     inkscape:cx="576.71822"
     inkscape:cy="301.08437"
     inkscape:window-width="1920"
     inkscape:window-height="991"
     inkscape:window-x="-9"
     inkscape:window-y="-9"
     inkscape:window-maximized="1"
     inkscape:current-layer="g184" />
  <g
     inkscape:groupmode="layer"
     inkscape:label="Image"
     id="g22">
    <g
       id="g184"
       style="fill:#000000;fill-opacity:1">
      <path
         style="fill:#000000;fill-opacity:1;stroke-width:1.33333"
         d="m 48.086099,124.39085 0.41652,-14.66938 h 4.09277 c 5.30382,0 12.15034,-4.27669 14.35558,-8.96725 0.9566,-2.034679 2.03853,-8.049419 2.40429,-13.366079 l 0.66502,-9.66667 h 7.0775 7.0775 l 0.41382,5 c 0.40162,4.85259 0.58074,5.01208 6.07537,5.40975 3.11385,0.22536 7.2385,1.22788 9.16589,2.22782 4.066531,2.10975 6.681181,1.4386 8.637701,-2.21718 3.02304,-5.64861 -5.41528,-11.96683 -9.465141,-7.08706 -0.91292,1.1 -3.65017,2 -6.08277,2 -4.14847,0 -4.4486,-0.31025 -4.83674,-5 l -0.41382,-5 -9,-0.39425 -9,-0.39425 v -13.27242 -13.27241 h 8 c 6.9372,0 8,0.33258 8,2.50341 0,1.37687 -0.9,3.25034 -2,4.16326 -4.55312,3.77875 -1.09645,11.3089 4.79044,10.43568 4.81638,-0.71442 6.20183,-4.36045 3.57787,-9.41575 -1.24277,-2.3943 -2.43404,-6.15327 -2.64727,-8.35327 -0.38768,-3.99971 -0.38839,-4.00002 -10.05437,-4.39174 l -9.66667,-0.39175 v -4.28372 c 0,-2.35605 -0.55811,-6.22976 -1.24026,-8.60825 l -1.24026,-4.32454 h 5.69502 c 3.13226,0 8.52391,0.85137 11.98144,1.89194 7.78018,2.34149 22.121931,11.55316 27.469281,17.64347 3.81169,4.34127 4.00144,5.12582 4.00144,16.5443 0,12.81285 2.66581,23.09578 7.88922,30.43138 3.74332,5.25701 3.56885,5.66623 -2.22255,5.21329 l -5,-0.39104 -0.4001,6.916009 c -0.34491,5.96209 -0.80468,6.97358 -3.33333,7.33333 -2.54362,0.36189 -3.02527,1.45251 -3.62607,8.21061 -0.82812,9.31493 -3.29635,11.93059 -9.56238,10.13352 -2.239581,-0.64231 -5.477241,-2.0886 -7.194801,-3.21398 -5.1606,-3.38136 -5.88332,-2.56808 -5.88332,6.62051 v 8.66666 h -8.66666 -8.66667 v -5.92131 c 0,-3.25672 0.6,-6.29213 1.33333,-6.74535 1.84302,-1.13905 1.67413,-6.45921 -0.26666,-8.4 -2.39124,-2.39124 -5.6803,-1.93857 -8.49243,1.1688 -2.39302,2.64426 -2.40232,2.94899 -0.20665,6.77472 1.26449,2.20325 2.29908,6.05729 2.29908,8.56453 v 4.55861 l -8.33333,0.003 -8.33334,0.003 0.41651,-14.66939 z m 17.58349,-1.33605 c 0,-0.73333 0.6,-1.33333 1.33333,-1.33333 0.73334,0 1.33334,0.6 1.33334,1.33333 0,0.73334 -0.6,1.33334 -1.33334,1.33334 -0.73333,0 -1.33333,-0.6 -1.33333,-1.33334 z m -17.57939,-19 c -1.14899,-0.91666 -2.70647,-2.83985 -3.46105,-4.273759 -1.11469,-2.11819 -0.83323,-2.87568 1.5009,-4.03937 4.32022,-2.15387 3.64657,-5.35353 -1.12712,-5.35353 -3.53926,0 -3.9576,-0.41082 -3.63191,-3.5665 0.43203,-4.18598 -2.18875,-6.42249 -3.91382,-3.33995 -0.99995,1.78681 -2.11188,1.14665 -6.82443,-3.929 -3.09641,-3.33498 -6.97984,-6.59646 -8.62984,-7.24774 -6.83005,-2.69591 -1.12946,-17.25015 6.75652,-17.25015 5.08137,0 10.01283,4.60544 9.2431,8.63203 -0.69865,3.65474 1.82166,7.84182 3.93428,6.53615 0.71412,-0.44136 1.00247,-1.93415 0.64076,-3.31733 -0.78657,-3.00783 1.3184,-4.57826 5.42534,-4.04762 1.65,0.21319 3,-0.13532 3,-0.77447 0,-2.09801 -3.14536,-4.36209 -6.06002,-4.36209 -1.57301,0 -3.92556,-1.17741 -5.22789,-2.61647 -1.30233,-1.43906 -4.33714,-3.26639 -6.74402,-4.06073 -8.86061,-2.92427 -6.38481,-15.49639 3.76182,-19.10255 1.31811,-0.46846 3.03316,-2.67789 3.81123,-4.90985 2.85861,-8.20023 13.57638,-10.39802 19.89477,-4.07963 l 3.89744,3.89744 v 34.85688 c 0,21.35717 -0.5317,35.85037 -1.37286,37.4221 -1.44938,2.708189 -7.91475,6.592809 -10.97275,6.592809 -0.99626,0 -2.75146,-0.75 -3.90045,-1.66667 z m 6.77368,-63.552509 c 2.92854,-1.85434 0.82086,-5.37613 -2.67095,-4.463 -2.42607,0.63443 -2.80828,0.34791 -2.07724,-1.55715 1.25921,-3.28144 -0.25457,-5.24614 -2.5648,-3.32882 -5.50206,4.5663 1.24469,13.19139 7.31299,9.34897 z m 46.805711,45.21918 c 0,-0.73333 0.6,-1.33333 1.33333,-1.33333 0.73333,0 1.33333,0.6 1.33333,1.33333 0,0.73333 -0.6,1.33333 -1.33333,1.33333 -0.73333,0 -1.33333,-0.6 -1.33333,-1.33333 z M 86.393199,57.813601 c -0.42191,-0.68266 -0.15732,-1.61807 0.58797,-2.07869 0.7453,-0.46061 1.35509,0.0979 1.35509,1.24121 0,2.34203 -0.80008,2.68687 -1.94306,0.83748 z"
         id="path192"
         sodipodi:nodetypes="ccssscccssssssscccccssssssscsscsssssscsssssscccsssssscccccssssssssssssssssssssssssscssssssssssssssssss" />
      <path
         style="fill:#000000;fill-opacity:1;stroke-width:1.33333"
         d="m 269.02963,109.83978 c -1.21367,-1.34107 -2.20665,-2.84107 -2.20665,-3.33333 0,-0.49226 4.2,-0.89501 9.33333,-0.89501 h 9.33333 v -15.999997 -16 h -3.33333 c -2.81482,0 -3.33334,-0.62222 -3.33334,-4 0,-3.82484 0.25128,-4 5.73844,-4 4.74071,0 6.4794,0.76447 10,4.39681 l 4.26156,4.39681 v 14.67497 14.674957 l -4.39681,4.26156 c -4.10025,3.97413 -5.03057,4.26156 -13.79335,4.26156 -7.40989,0 -9.86307,-0.51552 -11.60318,-2.43833 z m 362.06,0.83833 c -3.68092,-3.68093 -1.74817,-5.06667 7.06667,-5.06667 h 8.66666 v -15.999997 -16 h -3.33333 c -2.81481,0 -3.33333,-0.62222 -3.33333,-4 0,-3.84157 0.23358,-4 5.89769,-4 4.39961,0 6.93975,0.87682 10,3.45186 l 4.10231,3.45186 v 16.29869 c 0,16.116957 -0.0417,16.338617 -3.73963,19.881467 -3.37856,3.23687 -4.70451,3.58279 -13.73333,3.58279 -5.99511,0 -10.63388,-0.64018 -11.59371,-1.6 z M 157.48965,78.944783 v -21.33334 h 6.60303 6.60306 l 0.39694,8.33334 0.39696,8.33333 7,0.40301 c 6.42816,0.37009 7,0.66963 7,3.66667 0,3.06705 -0.44174,3.26365 -7.33333,3.26365 h -7.33333 v 9.33334 9.333327 h -6.66667 -6.66666 z m 17.33333,17.33333 c 0,-3.55556 0.44444,-4 4,-4 2.66666,0 4,-0.66667 4,-2 0,-1.51111 1.62962,-2 6.66666,-2 h 6.66667 v 6 5.999997 h -10.66667 -10.66666 z m 36,-13.33333 v -17.33334 h 6.66666 6.66667 v 17.33334 17.333327 h -6.66667 -6.66666 z m 22.66666,4 c 0,-12.44445 -0.17777,-13.33334 -2.66666,-13.33334 -3.33147,0 -3.44507,-2.88225 -0.22835,-5.79335 3.83695,-3.47238 8.56667,-2.69353 13.30012,2.19016 4.19825,4.3315 4.26156,4.58897 4.26156,17.33334 v 12.936517 h -7.33333 -7.33334 z m 32.26156,8.93652 c -3.906,-4.02997 -4.26156,-5.1206 -4.26156,-13.07178 0,-8.0624 0.31048,-8.97589 4.39682,-12.93652 2.41824,-2.34386 5.71824,-4.26156 7.33333,-4.26156 2.83071,0 2.93652,0.48046 2.93652,13.33334 0,12.44444 0.17777,13.33333 2.66666,13.33333 1.67902,0 2.66667,0.88889 2.66667,2.4 0,6.963087 -9.45512,7.685917 -15.73844,1.20319 z m 47.73844,-12.93652 v -17.33334 h 6.66667 6.66666 v 17.33334 17.333327 h -6.66666 -6.66667 z m 28,0 v -17.33334 h 6.66667 6.66666 v 17.33334 17.333327 h -6.66666 -6.66667 z m 24,4 v -13.33334 h -3.33333 c -3.94263,0 -4.35403,-2.66298 -0.89502,-5.79335 3.67592,-3.32666 9.52079,-2.74474 13.82206,1.37614 3.62393,3.47194 3.73962,4.0082 3.73962,17.33333 v 13.750547 h -6.66666 -6.66667 z m 30.77871,8.14146 c -3.48052,-4.39451 -4.11204,-6.33272 -4.11204,-12.62027 0,-6.4076 0.56865,-8.07607 4.13812,-12.14147 2.57507,-2.93284 5.34501,-4.71306 7.33333,-4.71306 h 3.19521 v 17.33334 17.333327 h -3.22129 c -2.15066,0 -4.588,-1.725597 -7.33333,-5.191867 z m 13.22129,1.19187 v -4 h 9.33333 c 8.09876,0 9.33333,0.31746 9.33333,2.4 0,4.10681 -2.91526,5.599997 -10.93333,5.599997 -7.70371,0 -7.73333,-0.0153 -7.73333,-3.999997 z m 38.33333,-0.61259 c -3.22157,-3.88351 -3.66667,-5.54101 -3.66667,-13.65428 0,-8.37687 0.3472,-9.56686 3.73963,-12.81701 2.05679,-1.97053 5.05679,-3.58279 6.66667,-3.58279 2.86373,0 2.92704,0.37493 2.92704,17.33334 0,17.114937 -0.0377,17.332117 -3,17.237067 -1.68956,-0.0542 -4.60164,-2.026997 -6.66667,-4.516327 z m 12.33333,0.61259 v -4 h 9.33334 c 8.09876,0 9.33333,0.31746 9.33333,2.4 0,4.10681 -2.91527,5.599997 -10.93333,5.599997 -7.70371,0 -7.73334,-0.0153 -7.73334,-3.999997 z m 34.66667,-13.33333 v -17.33334 h 6.66667 6.66666 v 17.33334 17.333327 h -6.66666 -6.66667 z m 49.33333,0 v -17.33334 h 6.66667 6.66666 v 17.33334 17.333327 h -6.66666 -6.66667 z m 28,0 v -17.33334 h 6.66667 6.66666 v 17.33334 17.333327 h -6.66666 -6.66667 z m 23.71495,4.33333 c -0.36202,-12.33243 -0.53567,-13.02188 -3.38162,-13.42607 -3.63049,-0.51561 -3.86582,-3.04373 -0.56168,-6.03395 3.67592,-3.32666 9.52079,-2.74474 13.82206,1.37614 3.62393,3.47194 3.73962,4.0082 3.73962,17.33333 v 13.750547 h -6.61838 -6.61839 z m 31.08984,8.28694 c -3.68735,-4.19966 -4.13812,-5.6236 -4.13812,-13.07178 0,-7.70467 0.34404,-8.69217 4.39681,-12.62027 2.41824,-2.34386 5.71824,-4.26156 7.33333,-4.26156 2.83071,0 2.93652,0.48046 2.93652,13.33334 v 13.33333 h 3.33333 c 3.94263,0 4.35403,2.66298 0.89502,5.79335 -4.20169,3.802467 -10.09673,2.801217 -14.75689,-2.50641 z m 76.12343,0.31625 c -4.21685,-4.35068 -4.26156,-4.53692 -4.26156,-17.75055 0,-12.89037 0.12974,-13.47805 3.73963,-16.93652 2.05679,-1.97053 5.05679,-3.58279 6.66667,-3.58279 2.89186,0 2.92704,0.25632 2.92704,21.33334 0,19.67111 -0.1874,21.333327 -2.40511,21.333327 -1.32281,0 -4.32281,-1.978557 -6.66667,-4.396807 z m 13.07178,0.39681 c 0,-3.68254 0.37037,-4 4.66666,-4 4.0889,0 4.66667,-0.4127 4.66667,-3.33333 0,-3.11111 0.44444,-3.33334 6.66667,-3.33334 6.07085,0 6.66666,0.27454 6.66666,3.07178 0,1.72426 -1.92878,4.94123 -4.39681,7.33333 -3.80056,3.68365 -5.33747,4.261557 -11.33333,4.261557 -6.81836,0 -6.93652,-0.0681 -6.93652,-3.999997 z m 37.33333,-20 v -24 h 6.66666 6.66667 v 24 23.999997 h -6.66667 -6.66666 z m 23.71494,11 c -0.36201,-12.33243 -0.53566,-13.02188 -3.38161,-13.42607 -1.7912,-0.25439 -3,-1.35574 -3,-2.73333 0,-6.87543 9.50107,-7.5458 15.73844,-1.11046 4.19825,4.3315 4.26156,4.58897 4.26156,17.33334 v 12.936517 h -6.61839 -6.61838 z m 27.0367,-4.33333 -0.15488,-17.33334 h 7.36828 7.36829 v 17.33334 17.333327 h -7.21341 -7.2134 z m 53.50992,12.93652 c -3.906,-4.02997 -4.26156,-5.1206 -4.26156,-13.07178 0,-8.0624 0.31048,-8.97589 4.39681,-12.93652 3.08563,-2.99071 5.67013,-4.26156 8.66667,-4.26156 3.85538,0 4.26985,0.38827 4.26985,4 0,2.2 -0.6,4 -1.33333,4 -0.76191,0 -1.33334,4 -1.33334,9.33334 0,5.33333 0.57143,9.33333 1.33334,9.33333 0.73333,0 1.33333,1.8 1.33333,4 0,3.6373 -0.39943,3.999997 -4.40511,3.999997 -3.23248,0 -5.53953,-1.170417 -8.66666,-4.396807 z m 17.07177,0.39681 c 0,-2.2 0.6,-4 1.33333,-4 0.76191,0 1.33334,-4 1.33334,-9.33333 0,-5.33334 -0.57143,-9.33334 -1.33334,-9.33334 -0.73333,0 -1.33333,-1.8 -1.33333,-4 0,-3.6373 0.39943,-4 4.4051,-4 3.23248,0 5.53954,1.17042 8.66667,4.39681 3.906,4.02997 4.26156,5.1206 4.26156,13.07178 0,8.0624 -0.31048,8.97589 -4.39681,12.93652 -3.08563,2.99071 -5.67014,4.261557 -8.66667,4.261557 -3.85538,0 -4.26985,-0.388267 -4.26985,-3.999997 z m 32,-13.33333 v -17.33334 h 6.66666 6.66667 v 17.33334 17.333327 h -6.66667 -6.66666 z m 22.66666,4 c 0,-12.44445 -0.17777,-13.33334 -2.66666,-13.33334 -3.33147,0 -3.44507,-2.88225 -0.22835,-5.79335 3.83695,-3.47238 8.56667,-2.69353 13.30012,2.19016 4.19825,4.3315 4.26156,4.58897 4.26156,17.33334 v 12.936517 h -7.33333 -7.33334 z m 28,-4 v -17.33334 h 7.33334 7.33333 v 17.33334 17.333327 h -7.33333 -7.33334 z m 32.13811,12.62027 c -3.6874,-4.19966 -4.1381,-5.6236 -4.1381,-13.07178 0,-7.70467 0.344,-8.69217 4.3968,-12.62027 2.4182,-2.34386 5.7182,-4.26156 7.3333,-4.26156 2.87587,0 2.93647,0.35793 2.93647,17.33334 v 17.333327 h -3.19517 c -1.9883,0 -4.7582,-1.780217 -7.3333,-4.713057 z m 13.19517,0.71306 c 0,-3.37778 0.5185,-4 3.3333,-4 2.0741,0 3.3334,-0.75556 3.3334,-2 0,-1.51111 1.6296,-2 6.6666,-2 8.022,0 8.5161,1.68438 2.2699,7.73844 -3.5282,3.41963 -5.5038,4.261557 -10,4.261557 -5.3369,0 -5.6032,-0.19012 -5.6032,-3.999997 z m 38.2496,0.26037 c -3.567,-3.72304 -3.5829,-3.82945 -3.5829,-24 v -20.26037 h 6.6667 6.6667 v 20 20 h 3.3333 c 2.8149,0 3.3334,0.62222 3.3334,4 0,3.890377 -0.1759,3.999997 -6.4172,3.999997 -5.2905,0 -7.0463,-0.656617 -10,-3.739627 z m 31.3453,-0.65718 c -3.906,-4.02997 -4.2616,-5.1206 -4.2616,-13.07178 0,-8.0624 0.3105,-8.97589 4.3968,-12.93652 8.1026,-7.85334 8.9366,-6.63352 8.9366,13.07178 0,15.81611 -0.2106,17.333327 -2.4051,17.333327 -1.3229,0 -4.3229,-1.978557 -6.6667,-4.396807 z m 13.0718,0.39681 v -4 h 9.3333 c 6.9294,0 9.3333,0.4619 9.3333,1.79335 0,3.70168 -4.7509,6.206647 -11.7716,6.206647 -6.7723,0 -6.895,-0.0712 -6.895,-3.999997 z m 36.2507,0.054 c -1.6046,-2.1703 -2.9174,-4.2703 -2.9174,-4.66666 0,-0.39636 3.3,-0.72066 7.3333,-0.72066 5.0833,0 7.2311,0.50166 7,1.63501 -0.1833,0.89926 1.0167,1.84099 2.6667,2.09274 1.917,0.29248 3,1.3869 3,3.03165 0,2.21998 -0.9739,2.573927 -7.0826,2.573927 -6.3019,0 -7.4041,-0.434927 -10,-3.946007 z m 21.0826,-2.72066 v -6.66666 h -8.4172 c -7.4817,0 -8.8154,-0.41563 -12,-3.73963 -1.9705,-2.05679 -3.5828,-5.24454 -3.5828,-7.08388 0,-4.09373 6.3529,-10.50983 10.4063,-10.50983 2.5802,0 2.927,0.71098 2.927,6 v 6 h 8.2604 c 7.1478,0 8.7641,0.48259 12,3.58279 4.9078,4.70197 4.9653,10.32532 0.1568,15.34425 -1.9705,2.0568 -4.9705,3.739627 -6.6666,3.739627 -2.8118,0 -3.0839,-0.588247 -3.0839,-6.666667 z M 409.48964,82.944783 c 0,-2.07408 0.88889,-2.66667 4,-2.66667 3.37777,0 4,-0.51852 4,-3.33333 0,-2.81482 -0.62223,-3.33334 -4,-3.33334 -3.55556,0 -4,-0.44444 -4,-4 0,-3.89038 0.17586,-4 6.41721,-4 8.89041,0 13.58279,4.74656 13.58279,13.73963 v 6.26037 h -10 c -9.11111,0 -10,-0.23703 -10,-2.66666 z m 50.66666,0 c 0,-2.07408 0.8889,-2.66667 4,-2.66667 3.37778,0 4,-0.51852 4,-3.33333 0,-2.81482 -0.62222,-3.33334 -4,-3.33334 -3.55556,0 -4,-0.44444 -4,-4 0,-3.89983 0.1635,-4 6.52855,-4 5.80409,0 6.98773,0.523 10.66667,4.71306 3.14046,3.5768 4.13812,5.98769 4.13812,10 v 5.28694 h -10.66667 c -9.77777,0 -10.66667,-0.22222 -10.66667,-2.66666 z m 625.3333,0 c 0,-2.08751 0.8889,-2.66667 4.0927,-2.66667 3.4817,0 4.0291,-0.44791 3.6667,-3 -0.3051,-2.14801 -1.4674,-3.11982 -4.0928,-3.4219 -3.0708,-0.35334 -3.6666,-1.05748 -3.6666,-4.33333 0,-3.72048 0.2801,-3.91144 5.7384,-3.91144 4.7407,0 6.4794,0.76447 10,4.39681 3.4196,3.52816 4.2616,5.5038 4.2616,10 v 5.60319 h -10 c -9.1111,0 -10,-0.23703 -10,-2.66666 z m -567.99996,-5.33334 c 0,-3.11111 -0.59259,-4 -2.66667,-4 -3.33147,0 -3.44507,-2.88225 -0.22835,-5.79335 4.21304,-3.81275 10.11165,-2.81873 14.07009,2.37106 1.92038,2.51773 3.49159,6.11773 3.49159,8 0,3.25934 -0.34916,3.42229 -7.33333,3.42229 -7.25925,0 -7.33333,-0.0404 -7.33333,-4 z m 310.66665,0 c 0,-3.37777 -0.51852,-4 -3.33333,-4 -3.94263,0 -4.35403,-2.66298 -0.89501,-5.79335 6.35856,-5.75441 17.42973,0.22369 17.51954,9.46002 0.042,4.31673 0.0165,4.33333 -6.62453,4.33333 -6.51852,0 -6.66667,-0.0889 -6.66667,-4 z m 181.33331,-1.33333 c 0,-1.95556 -0.8889,-2.66667 -3.3334,-2.66667 -2.8148,0 -3.3333,-0.62222 -3.3333,-4 0,-3.78871 0.2864,-4 5.4223,-4 6.8022,0 14.5777,5.41824 14.5777,10.15825 0,2.92121 -0.533,3.17509 -6.6667,3.17509 -5.7777,0 -6.6666,-0.35556 -6.6666,-2.66667 z m -284.24882,-7 c -0.36739,-3.8103 -0.94086,-4.38376 -4.75115,-4.75114 -3.58897,-0.34605 -4.33333,-0.97589 -4.33333,-3.66667 0,-3.07032 0.42593,-3.24886 7.75054,-3.24886 6.7513,0 8.21246,0.48214 11.33334,3.73963 2.3604,2.46373 3.58278,5.19318 3.58278,8 0,4.21627 -0.0681,4.26037 -6.58218,4.26037 -6.45147,0 -6.5905,-0.0861 -7,-4.33333 z m 417.58212,3 c 0,-0.73333 -1.8,-1.33333 -4,-1.33333 -3.1111,0 -4,-0.5926 -4,-2.66667 0,-2.36251 0.8889,-2.66667 7.7933,-2.66667 5.8568,0 8.3417,0.60591 10,2.43832 3.6894,4.07672 2.6766,5.56168 -3.7933,5.56168 -3.3,0 -6,-0.6 -6,-1.33333 z m -959.99992,-6 c 0,-1.33333 -1.33334,-2 -4,-2 -3.37778,0 -4,-0.51852 -4,-3.33333 0,-3.27778 0.17777,-3.33334 10.66666,-3.33334 h 10.66667 v 5.33334 5.33333 h -6.66667 c -5.03704,0 -6.66666,-0.48889 -6.66666,-2 z m 130.66666,-10 c 0,-3.91111 0.14815,-4 6.66667,-4 6.51852,0 6.66666,0.0889 6.66666,4 0,3.91111 -0.14814,4 -6.66666,4 -6.51852,0 -6.66667,-0.0889 -6.66667,-4 z m 230.66666,0 c 0,-3.91111 0.14815,-4 6.66667,-4 6.51852,0 6.66666,0.0889 6.66666,4 0,3.91111 -0.14814,4 -6.66666,4 -6.51852,0 -6.66667,-0.0889 -6.66667,-4 z m 413.33332,0 c 0,-3.9596 0.0741,-4 7.33334,-4 7.25925,0 7.33333,0.0404 7.33333,4 0,3.9596 -0.0741,4 -7.33333,4 -7.25926,0 -7.33334,-0.0404 -7.33334,-4 z"
         id="path186" />
      <path
         style="fill:#000000;fill-opacity:1;stroke-width:0.679103"
         d=""
         id="path460" />
    </g>
  </g>
</svg>
